<svg xmlns="http://www.w3.org/2000/svg" width="256" height="256" viewBox="0 0 100 100"><rect width="100" height="100" rx="20" fill="#010101"></rect><path d="M47.08 86.31L47.08 86.31Q41.86 86.31 37.13 84.52Q32.41 82.72 29.44 79.03Q26.46 75.33 26.46 69.84L26.46 69.84Q26.46 64.98 28.63 62.24Q30.79 59.50 34.02 58.41Q37.27 57.34 40.33 57.34L40.33 57.34Q37.45 60.39 35.96 63.63Q34.48 66.88 34.48 69.84L34.48 69.84Q34.48 72.91 36.05 75.56Q37.63 78.22 40.77 79.88Q43.92 81.55 48.61 81.55L48.61 81.55Q52.66 81.55 56.48 80.19Q60.30 78.84 62.78 76.14Q65.25 73.44 65.25 69.39L65.25 69.39Q65.25 65.70 63.14 63.05Q61.03 60.39 57.70 58.28Q54.36 56.16 50.67 54.23Q46.98 52.30 43.66 50.05Q40.33 47.80 38.21 44.83Q36.09 41.86 36.09 37.72L36.09 37.72Q36.09 34.02 37.94 29.84Q39.78 25.66 43.20 21.97Q46.63 18.27 51.48 15.98Q56.34 13.69 62.28 13.69L62.28 13.69Q68.50 13.69 71.02 16.30Q73.53 18.91 73.53 23.13L73.53 23.13Q73.53 26.47 72.36 30.25Q71.19 34.02 69.53 37.45Q67.86 40.87 66.33 43.30L66.33 43.30Q64.36 42.84 63.36 41.72Q62.38 40.59 62.38 38.70L62.38 38.70Q62.38 36.81 63.14 34.48Q63.91 32.13 64.94 29.62Q65.97 27.09 66.74 24.71Q67.50 22.33 67.50 20.52L67.50 20.52Q67.50 18.91 66.56 18.01Q65.61 17.11 62.73 17.11L62.73 17.11Q58.42 17.11 54.81 19.00Q51.22 20.89 48.56 23.77Q45.91 26.65 44.47 29.84Q43.02 33.04 43.02 35.65L43.02 35.65Q43.02 38.88 45.09 41.18Q47.16 43.48 50.45 45.37Q53.73 47.25 57.38 49.14Q61.03 51.03 64.31 53.38Q67.59 55.72 69.66 58.95Q71.73 62.20 71.73 66.88L71.73 66.88Q71.73 71.56 69.62 75.16Q67.50 78.75 63.91 81.23Q60.30 83.70 55.94 85.01Q51.58 86.31 47.08 86.31Z" fill="#fff"></path></svg>