<?xml version="1.0"?>
<svg version="1.1" xmlns="http://www.w3.org/2000/svg" width="400" height="200" style="border: dashed 2px #aaa"><path fill="#000000" d="M83.817,114.964q-3.219,1.305-5.5245,1.305t-2.3055-0.957q0-0.609,2.5665-0.696t3.6975-0.609q3.306-1.74,3.306-5.133q0-1.74-0.957-3.654q-2.784-4.959-13.485-4.959q-6.177,0-12.354,1.8705t-10.353,5.742t-4.176,7.1775q0,5.046,10.005,7.395l10.266,1.914q6.177,1.131,9.222,3.132q4.002,2.436,4.002,6.96q0,1.827-0.609,3.915q-2.784,9.396-14.355,14.355q-9.657,4.263-22.794,4.263q-3.741,0-6.525-0.348q2.784,1.566,7.308,2.697q0.348,0.087,0.348,0.348q0,0.783-1.827,0.783q-3.567,0-8.874-4.263q-7.221-1.131-10.788-4.002q-2.262-1.827-4.176-5.394t-1.914-6.438t1.131-4.785q2.61-4.611,6.612-4.611q3.045,0,3.567,5.133q1.218,9.918,1.653,11.31q1.305,4.263,4.437,7.221q3.654,0.783,7.917,0.783q9.396,0,18.444-3.741t13.05-10.614q1.653-2.697,1.653-4.785q0-4.089-7.221-6.351l-15.312-3.48q-4.698-1.131-7.5255-3.741t-2.8275-6.003q0-5.22,6.525-10.44q4.959-4.002,12.1365-6.2205t14.094-2.2185t11.4405,2.001q5.829,2.697,5.829,7.8735t-5.307,7.2645z M27.789,153.766q-5.046-5.568-6.438-15.225q-0.783-5.481-1.479-5.481t-1.305,0.3915t-1.218,1.6965t-0.609,3.393q0,6.699,4.698,11.484q2.349,2.436,6.351,3.741z"/><path fill="#4e5961" d="M90.25912203125,115.205078125q0-1.5380859375,0.340576171875-3.62548828125t1.153564453125-3.955078125t2.142333984375-3.175048828125t3.350830078125-1.307373046875q1.8896484375,0,2.83447265625,1.087646484375t0.94482421875,2.933349609375q0,1.20849609375-0.450439453125,2.647705078125t-1.285400390625,2.724609375t-1.9775390625,2.142333984375t-2.548828125,0.85693359375l-0.5712890625-0.0439453125q0,0.59326171875,0.17578125,1.593017578125t0.516357421875,1.988525390625t0.87890625,1.73583984375t1.307373046875,0.7470703125q1.12060546875,0,2.1533203125-0.90087890625t1.95556640625-1.99951171875t1.7138671875-1.99951171875t1.4501953125-0.90087890625q0.3515625,0,0.72509765625,0.10986328125t0.41748046875,0.615234375q0,0.3076171875-0.164794921875,0.50537109375t-0.296630859375,0.439453125q-0.68115234375,1.16455078125-1.483154296875,2.21923828125t-1.812744140625,1.91162109375t-2.208251953125,1.351318359375t-2.647705078125,0.494384765625q-1.8896484375,0-3.14208984375-0.670166015625t-2.021484375-1.8017578125t-1.109619140625-2.61474609375t-0.340576171875-3.109130859375z M94.1922275,113.53515625l0.615234375,0.54931640625q0.439453125,0.3955078125,0.87890625,0.17578125t0.791015625-0.802001953125t0.648193359375-1.439208984375t0.52734375-1.7578125t0.340576171875-1.7578125t0.10986328125-1.42822265625l0-0.7470703125t-0.06591796875-0.791015625t-0.230712890625-0.626220703125t-0.516357421875-0.318603515625q-0.10986328125-0.02197265625-0.19775390625-0.02197265625q-0.7470703125,0-1.2744140625,0.94482421875q-0.5712890625,1.0546875-0.9228515625,2.559814453125t-0.50537109375,3.087158203125t-0.19775390625,2.373046875z M108.62101167969,105.11962890625q0-0.2197265625,0.340576171875-0.37353515625t0.81298828125-0.2197265625t0.90087890625-0.10986328125t0.648193359375-0.0439453125q0.087890625-0.59326171875,0.252685546875-1.60400390625t0.406494140625-2.164306640625t0.604248046875-2.318115234375t0.87890625-2.109375t1.219482421875-1.549072265625t1.64794921875-0.604248046875l-0.0439453125,0q0.3076171875-0.0439453125,0.604248046875-0.06591796875t0.604248046875-0.02197265625q0.72509765625,0,1.571044921875,0.28564453125t1.571044921875,0.802001953125t1.219482421875,1.241455078125t0.494384765625,1.5380859375q0,0.63720703125-0.318603515625,1.373291015625t-1.109619140625,0.736083984375q-0.263671875,0-0.538330078125-0.1318359375t-0.516357421875-0.28564453125q0.087890625-0.50537109375,0.087890625-1.0107421875q0-0.263671875-0.02197265625-0.50537109375q-0.06591796875-0.76904296875-0.32958984375-1.351318359375t-0.758056640625-0.9228515625t-1.175537109375-0.252685546875q-0.90087890625,0.1318359375-1.351318359375,1.0986328125t-0.626220703125,2.296142578125t-0.2197265625,2.70263671875t-0.17578125,2.230224609375q1.03271484375,0.087890625,1.746826171875,0.087890625l1.790771484375,0q0.17578125,0,0.604248046875,0.02197265625t0.8349609375,0.087890625t0.72509765625,0.230712890625t0.318603515625,0.428466796875q0,0.2197265625-0.17578125,0.384521484375t-0.428466796875,0.230712890625t-0.52734375,0.087890625t-0.450439453125,0.02197265625q-0.76904296875,0-1.307373046875-0.06591796875t-1.03271484375-0.120849609375t-1.03271484375-0.054931640625t-1.263427734375,0.15380859375q-0.2197265625,2.43896484375-0.3515625,4.833984375t-0.1318359375,4.833984375q0,3.8232421875,0.24169921875,7.49267578125t0.87890625,7.44873046875q0.087890625,0.3515625,0.15380859375,0.802001953125t0.06591796875,0.867919921875q0,0.3955078125-0.24169921875,0.648193359375t-0.604248046875,0.362548828125t-0.7470703125,0.15380859375t-0.692138671875,0.0439453125q-1.25244140625,0-1.7578125-0.384521484375t-0.72509765625-1.549072265625q-0.54931640625-3.09814453125-0.703125-6.251220703125t-0.15380859375-6.361083984375q0-3.14208984375,0.230712890625-6.273193359375t0.582275390625-6.229248046875q-0.17578125,0-0.604248046875,0.02197265625t-0.85693359375,0t-0.7470703125-0.15380859375t-0.318603515625-0.46142578125z M124.82958101562,114.30419921875q0-1.494140625,0.406494140625-2.87841796875t1.219482421875-2.471923828125t2.032470703125-1.73583984375t2.823486328125-0.648193359375q0.98876953125,0,2.186279296875,0.296630859375t2.252197265625,0.87890625t1.7578125,1.483154296875t0.703125,2.0654296875q0,0.54931640625-0.186767578125,0.8349609375t-0.758056640625,0.28564453125l-0.24169921875-0.0439453125q0.63720703125,1.7138671875,1.0986328125,3.515625t0.90087890625,3.603515625q0.17578125,0.3515625,0.263671875,0.626220703125t0.087890625,0.538330078125q0,0.3515625-0.19775390625,0.582275390625t-0.516357421875,0.340576171875t-0.6591796875,0.15380859375t-0.604248046875,0.0439453125q-0.94482421875,0-1.417236328125-0.32958984375t-0.68115234375-0.90087890625t-0.252685546875-1.285400390625t-0.17578125-1.439208984375q-0.263671875,0.85693359375-0.692138671875,1.669921875t-1.0107421875,1.461181640625t-1.373291015625,1.03271484375t-1.77978515625,0.384521484375q-1.4501953125,0-2.43896484375-0.8349609375t-1.593017578125-2.054443359375t-0.87890625-2.603759765625t-0.274658203125-2.57080078125z M127.94969820312,113.99658203125q0,0.81298828125,0.10986328125,1.7138671875t0.362548828125,1.77978515625t0.648193359375,1.658935546875t0.98876953125,1.373291015625q1.07666015625-1.16455078125,1.593017578125-2.83447265625t0.9228515625-3.218994140625t0.9228515625-2.65869140625t1.593017578125-1.109619140625q0.68115234375,0,1.142578125,0.24169921875q-0.2197265625-0.54931640625-0.72509765625-1.065673828125t-1.131591796875-0.94482421875t-1.29638671875-0.703125t-1.263427734375-0.274658203125q-0.17578125,0-0.406494140625,0.054931640625t-0.362548828125,0.010986328125q-0.90087890625,0.263671875-1.483154296875,0.911865234375t-0.94482421875,1.527099609375t-0.516357421875,1.8017578125t-0.15380859375,1.73583984375z"/></svg>
